<svg width="140" height="20" viewBox="0 0 140 20" fill="none" xmlns="http://www.w3.org/2000/svg">
  <style>
    .text { font-family: 'Darker Grotesque', sans-serif; }
  </style>
  <path d="M124.734 19.2936V6.64951H124.683L119.62 19.2936H117.505L112.442 6.90138H112.392V19.2936H108.765V0.352631H113.072L118.563 13.2486L124.053 0.352631H128.361V19.2936H124.734Z" fill="white"/>
  <path d="M102.242 19.2936L98.5398 11.8129H96.3233V19.2936H92.5452V0.352631H99.6229C103.602 0.352631 105.869 2.84619 105.869 5.99463C105.869 7.98444 104.786 10.5788 102.343 11.3092L106.751 19.2936H102.242ZM96.3233 8.74007H98.842C101.436 8.74007 102.091 7.35476 102.091 6.14576C102.091 4.78563 101.436 3.57663 98.7161 3.57663H96.3233V8.74007Z" fill="white"/>
  <path d="M85.8454 9.82313C85.8454 6.42281 84.0823 3.37513 80.556 3.37513C77.0298 3.37513 75.2667 6.42281 75.2667 9.82313C75.2667 13.2234 77.0298 16.2711 80.556 16.2711C84.0823 16.2711 85.8454 13.2234 85.8454 9.82313ZM71.3374 9.82313C71.3374 4.73525 74.6622 0 80.556 0C86.4499 0 89.7747 4.73525 89.7747 9.82313C89.7747 14.911 86.4499 19.6463 80.556 19.6463C74.6622 19.6463 71.3374 14.911 71.3374 9.82313Z" fill="white"/>
  <path d="M58.7534 19.2936V0.352631H69.8611V3.72776H62.5315V8.03482H69.6848V11.4099H62.5315V19.2936H58.7534Z" fill="white"/>
  <path d="M47.6632 19.2936V3.72776H42.676V0.352631H56.4284V3.72776H51.4413V19.2936H47.6632Z" fill="white"/>
  <path d="M38.6352 15.3392L35.2097 4.91157H35.1593L31.7086 15.3392H38.6352ZM39.9197 19.2936L38.6352 15.3392H31.7086L30.4744 19.2936H26.394L33.2954 0.352631H37.275L44.0757 19.2936H39.9197Z" fill="white"/>
  <path d="M14.8174 19.2936V0.352631H18.5955V15.7674H25.8747V19.2936H14.8174Z" fill="white"/>
  <path d="M3.77813 9.14307H5.89387C8.38744 9.14307 8.96675 7.63182 8.96675 6.37244C8.96675 5.08788 8.08519 3.57663 5.91906 3.57663H3.77813V9.14307ZM0 19.2936V0.352631H6.17094C9.14306 0.352631 12.7449 1.71276 12.7449 6.37244C12.7449 10.7299 9.49569 12.3671 6.47319 12.3671H3.77813V19.2936H0Z" fill="white"/>
  <path d="M137.076 1.50544L133.619 9.67482H131.773L135.257 1.71512H130.811V0.141846H137.076V1.50544Z" fill="#2392eb"/>
  <path d="M140 0.141846H137.912V9.67482H140V0.141846Z" fill="#2392eb"/>
</svg>
